# Blender 4.4.3
# www.blender.org
mtllib Entrance.mtl
o Pyramid
v 4.401062 -0.357754 6.176332
v 4.401063 7.414165 6.176334
v 4.627299 7.414165 6.221324
v 4.627298 -0.357754 6.221322
v -3.376837 -0.357752 6.541193
v -3.376836 7.414166 6.541195
v -3.331835 7.414166 6.767384
v -3.331836 -0.357752 6.767381
v 4.819092 7.414165 6.349453
v 4.819091 -0.357754 6.349451
v -3.504990 -0.357752 6.349443
v -3.504989 7.414166 6.349446
v 4.947246 7.414165 6.541203
v 4.947245 -0.357754 6.541200
v -3.696784 -0.357752 6.221315
v -3.696783 7.414166 6.221317
v 4.992248 7.414165 6.767391
v 4.992247 -0.357754 6.767388
v -3.923021 -0.357752 6.176324
v -3.923020 7.414166 6.176327
v 4.947246 7.414165 6.993579
v 4.947245 -0.357754 6.993577
v 4.819092 7.414165 7.185329
v 4.819091 -0.357754 7.185327
v 4.627298 7.414165 7.313457
v 4.627297 -0.357754 7.313455
v 4.401062 7.414165 7.358448
v 4.401062 -0.357754 7.358446
v 4.174827 7.414165 7.313457
v 4.174826 -0.357754 7.313455
v 3.983032 7.414165 7.185328
v 3.983030 -0.357754 7.185326
v 3.854879 7.414165 6.993578
v 3.854877 -0.357754 6.993576
v 3.809878 7.414165 6.767390
v 3.809876 -0.357754 6.767387
v 3.854879 7.414165 6.541202
v 3.854877 -0.357754 6.541199
v 3.983033 7.414165 6.349452
v 3.983032 -0.357754 6.349450
v 4.174827 7.414165 6.221324
v 4.174826 -0.357754 6.221322
v -3.376836 7.414166 6.993572
v -3.376837 -0.357752 6.993570
v -3.504989 7.414166 7.185322
v -3.504991 -0.357752 7.185319
v -3.696783 7.414166 7.313450
v -3.696785 -0.357752 7.313448
v -3.923020 7.414166 7.358441
v -3.923022 -0.357752 7.358438
v -4.149257 7.414166 7.313450
v -4.149258 -0.357752 7.313447
v -4.341051 7.414166 7.185321
v -4.341052 -0.357752 7.185318
v -4.469203 7.414166 6.993571
v -4.469204 -0.357752 6.993569
v -4.514205 7.414166 6.767383
v -4.514205 -0.357752 6.767380
v -4.469203 7.414167 6.541194
v -4.469204 -0.357752 6.541192
v -4.341051 7.414167 6.349445
v -4.341052 -0.357752 6.349442
v -4.149256 7.414166 6.221317
v -4.149257 -0.357752 6.221314
v 7.220402 -0.706460 8.224272
v -6.700981 -0.706457 8.224259
v 7.220404 -0.706460 4.718433
v 1.598593 -0.706460 4.718428
v -6.700980 -0.706457 4.718421
v -1.079170 -0.706459 4.718426
v -1.079163 -0.646864 -9.530888
v 1.598600 -0.646864 -9.530886
v -6.700981 -1.011468 8.224259
v -6.700997 -0.706457 40.755646
v -6.700997 -1.011467 40.755646
v 7.220387 -0.706460 40.755661
v 7.220387 -1.011470 40.755661
v -22.473812 4.585220 -8.045278
v -22.473812 -1.011464 -8.045280
v 22.969200 4.585212 8.224279
v 22.969200 -1.011472 8.224277
v -15.768818 4.585219 8.224261
v -22.473820 4.585221 8.224256
v -22.473820 -1.011464 8.224254
v -15.768810 4.585219 -8.045272
v 22.969208 4.585212 -8.045254
v 16.264206 4.585213 -8.045259
v -11.284474 6.317139 8.224265
v -15.768816 6.317139 8.224261
v 11.779859 6.317134 8.224270
v 16.264198 4.585214 8.224274
v 16.264198 6.317134 8.224274
v 7.220404 9.232308 8.224267
v 9.921965 7.790571 8.224269
v 9.921965 9.232306 8.224261
v -9.426582 7.790574 8.224259
v -9.426582 9.232310 8.224252
v 16.264206 6.317133 -8.045259
v -11.284474 7.790575 8.224266
v -11.284473 6.317139 3.889233
v -15.768808 6.317139 -8.045272
v 11.779859 7.790570 8.224271
v 7.220404 9.232307 7.851563
v 11.779860 6.317134 3.889238
v -6.700979 9.232310 8.224255
v -6.700979 9.232310 7.851552
v 7.220403 7.790571 7.851571
v 7.220405 7.790571 4.718435
v -6.700980 7.790573 7.851559
v -6.700979 7.790573 4.718423
v 1.598594 4.585217 4.718430
v -1.079169 4.585217 4.718427
v -1.079162 4.585215 -9.530886
v 1.598601 4.585215 -9.530884
v 22.969208 -1.011472 -8.045256
v -4.950721 7.293480 7.750263
v -2.950282 7.293480 7.750265
v -2.950282 7.823860 7.750265
v -4.950721 7.823860 7.750263
v -4.950720 7.293480 5.750262
v -4.950720 7.823860 5.750262
v 5.382115 -0.170488 7.750269
v 5.382116 -0.170488 5.750269
v 3.381676 -0.170487 5.750267
v 3.381675 -0.170487 7.750268
v 3.381676 7.293479 7.750270
v 3.381677 7.293479 5.750269
v 5.382117 7.293478 5.750271
v 5.382116 7.293478 7.750272
v 3.381675 -0.700868 7.750268
v 5.382115 -0.700869 7.750269
v 5.382116 -0.700869 5.750269
v 3.381676 -0.700868 5.750267
v -2.950281 7.293480 5.750264
v -2.950281 7.823860 5.750264
v -4.950722 -0.170486 7.750260
v -4.950721 -0.170486 5.750260
v -4.950721 -0.700867 5.750260
v -4.950722 -0.700867 7.750260
v -2.950282 -0.170486 5.750262
v -2.950282 -0.700867 5.750262
v -2.950283 -0.170486 7.750262
v -2.950283 -0.700867 7.750262
v 5.382117 7.823858 5.750271
v 5.382116 7.823858 7.750272
v 3.381677 7.823859 5.750269
v 3.381676 7.823859 7.750270
v 7.220402 -1.011470 8.224272
v -11.284473 7.790575 3.889233
v 9.921968 9.232308 3.889229
v 11.779860 7.790570 3.889238
v -9.426579 9.232312 3.889220
v -9.426579 7.790574 3.889227
v 9.921968 7.790571 3.889236
vn 0.0003 -0.0000 -1.0000
vn 0.3824 -0.0000 -0.9240
vn 0.9240 -0.0000 -0.3825
vn 1.0000 -0.0000 -0.0003
vn 0.3829 -0.0000 -0.9238
vn 0.3829 -0.0001 -0.9238
vn 0.7068 -0.0000 -0.7074
vn 0.7072 -0.0000 -0.7070
vn 0.9237 -0.0000 -0.3830
vn 0.9237 -0.0001 -0.3830
vn 1.0000 -0.0000 0.0003
vn 1.0000 0.0001 0.0003
vn 0.9240 -0.0000 0.3825
vn 0.9240 0.0001 0.3825
vn 0.9237 -0.0000 0.3830
vn 0.7072 -0.0000 0.7070
vn 0.7068 -0.0000 0.7074
vn 0.3829 -0.0000 0.9238
vn 0.3829 0.0001 0.9238
vn 0.3824 -0.0000 0.9240
vn 0.0003 -0.0000 1.0000
vn -0.0003 -0.0000 1.0000
vn -0.3824 -0.0000 0.9240
vn -0.3829 -0.0000 0.9238
vn -0.7068 -0.0000 0.7074
vn -0.7072 -0.0000 0.7070
vn -0.9237 -0.0000 0.3830
vn -0.9240 -0.0000 0.3825
vn -1.0000 -0.0000 0.0003
vn -1.0000 0.0001 0.0003
vn -1.0000 -0.0000 -0.0003
vn -0.9240 -0.0000 -0.3825
vn -0.9237 -0.0000 -0.3830
vn -0.9237 0.0001 -0.3830
vn -0.7072 -0.0000 -0.7070
vn -0.7068 -0.0000 -0.7074
vn -0.3829 -0.0000 -0.9238
vn -0.3824 -0.0000 -0.9240
vn -0.0003 -0.0000 -1.0000
vn 1.0000 -0.0001 0.0003
vn -0.3829 -0.0001 0.9238
vn -0.9237 -0.0001 0.3830
vn -0.9240 -0.0001 0.3825
vn -1.0000 -0.0001 -0.0003
vn -0.0000 1.0000 -0.0000
vn -0.0000 1.0000 0.0014
vn -0.0000 1.0000 0.0042
vn -1.0000 -0.0000 -0.0000
vn -0.0000 -0.0000 1.0000
vn 1.0000 -0.0000 -0.0000
vn -0.0000 -0.0000 -1.0000
vn -0.0000 -1.0000 -0.0000
vn 0.3165 -0.0000 -0.9486
vn 0.7069 -0.0000 -0.7073
vn 0.3160 -0.0000 -0.9488
vn 0.7073 -0.0000 -0.7069
vt 0.721327 0.903973
vt 0.542957 0.903973
vt 0.542957 0.898679
vt 0.721327 0.898679
vt 0.534212 0.893468
vt 0.355835 0.893468
vt 0.355835 0.888176
vt 0.534212 0.888176
vt 0.542957 0.893386
vt 0.721327 0.893386
vt 0.534212 0.898761
vt 0.355835 0.898761
vt 0.542957 0.888093
vt 0.721327 0.888093
vt 0.534212 0.904055
vt 0.355835 0.904055
vt 0.542957 0.882800
vt 0.721327 0.882800
vt 0.534212 0.909349
vt 0.355835 0.909349
vt 0.542957 0.877508
vt 0.721327 0.877508
vt 0.542957 0.872216
vt 0.721327 0.872216
vt 0.542957 0.866923
vt 0.721327 0.866923
vt 0.542957 0.861629
vt 0.721327 0.861629
vt 0.542957 0.856336
vt 0.721327 0.856336
vt 0.542957 0.851043
vt 0.721327 0.851043
vt 0.542957 0.845750
vt 0.721327 0.845750
vt 0.542957 0.840458
vt 0.721327 0.840458
vt 0.542957 0.835165
vt 0.721327 0.835165
vt 0.542957 0.829873
vt 0.721327 0.829873
vt 0.542957 0.824579
vt 0.721327 0.824579
vt 0.542957 0.819285
vt 0.721327 0.819285
vt 0.355835 0.882883
vt 0.534212 0.882883
vt 0.355835 0.877591
vt 0.534212 0.877591
vt 0.355835 0.872299
vt 0.534212 0.872299
vt 0.355835 0.867007
vt 0.534213 0.867007
vt 0.355835 0.861714
vt 0.534213 0.861714
vt 0.355835 0.856422
vt 0.534213 0.856422
vt 0.355835 0.851129
vt 0.534213 0.851129
vt 0.355835 0.845837
vt 0.534213 0.845837
vt 0.355835 0.840545
vt 0.534213 0.840545
vt 0.355835 0.835252
vt 0.534213 0.835252
vt 0.355835 0.829958
vt 0.534213 0.829958
vt 0.355835 0.824664
vt 0.534213 0.824664
vt 0.574237 0.557875
vt 0.574237 0.318257
vt 0.634580 0.415021
vt 0.634580 0.461112
vt 0.446638 0.301732
vt 0.446638 0.245865
vt 0.743926 0.245865
vt 0.743926 0.301732
vt 0.574237 0.557875
vt 0.574237 0.564151
vt 0.014299 0.564151
vt 0.014299 0.557875
vt 0.008023 0.557875
vt 0.008023 0.318257
vt 0.014299 0.318257
vt 0.574237 0.311981
vt 0.574237 0.318257
vt 0.014299 0.311981
vt 0.634580 0.557876
vt 0.634580 0.318257
vt 0.852326 0.243521
vt 0.852326 0.080646
vt 0.988278 0.080646
vt 0.979421 0.463794
vt 0.087418 0.011742
vt 0.087418 0.235770
vt 0.010353 0.235770
vt 0.010353 0.011742
vt 0.179744 0.011742
vt 0.179744 0.235770
vt 0.810255 0.352453
vt 0.810255 0.243521
vt 0.528463 0.747304
vt 0.637395 0.705233
vt 0.637395 0.747305
vt 0.417706 0.818118
vt 0.483332 0.783097
vt 0.483332 0.818119
vt 0.800270 0.705234
vt 0.417706 0.578138
vt 0.800270 0.569281
vt 0.774462 0.397584
vt 0.668529 0.235770
vt 0.644681 0.235770
vt 0.644681 0.011742
vt 0.668529 0.011742
vt 0.582932 0.071434
vt 0.774462 0.352453
vt 0.418952 0.243688
vt 0.418953 0.274517
vt 0.392645 0.274517
vt 0.265341 0.071434
vt 0.203593 0.235770
vt 0.203592 0.011742
vt 0.528463 0.783096
vt 0.206329 0.992080
vt 0.206329 0.911586
vt 0.240827 0.911586
vt 0.240827 0.992081
vt 0.178970 0.992080
vt 0.178970 0.911585
vt 0.576706 0.918508
vt 0.576706 0.911588
vt 0.626869 0.911587
vt 0.267598 0.911587
vt 0.318208 0.911588
vt 0.318208 0.918508
vt 0.978619 0.548956
vt 0.774463 0.548957
vt 0.774462 0.472848
vt 0.332543 0.783097
vt 0.332544 0.578940
vt 0.739440 0.463794
vt 0.408652 0.783097
vt 0.198138 0.716202
vt 0.198137 0.596885
vt 0.327156 0.596884
vt 0.327157 0.789763
vt 0.739440 0.397585
vt 0.007666 0.789764
vt 0.007666 0.596885
vt 0.136684 0.596885
vt 0.136684 0.716202
vt 0.992384 0.892012
vt 0.992384 0.988550
vt 0.727797 0.988550
vt 0.727797 0.892012
vt 0.327931 0.869923
vt 0.008441 0.869923
vt 0.008441 0.798019
vt 0.327931 0.798019
vt 0.757643 0.545112
vt 0.649173 0.545112
vt 0.649173 0.489245
vt 0.757643 0.489245
vt 0.992384 0.745752
vt 0.992384 0.842290
vt 0.727797 0.842290
vt 0.727797 0.745752
vt 0.267598 0.992082
vt 0.626869 0.992082
vt 0.715497 0.911585
vt 0.715497 0.992080
vt 0.688138 0.992080
vt 0.688137 0.911586
vt 0.760855 0.011742
vt 0.760855 0.235770
vt 0.265341 0.011742
vt 0.653640 0.911586
vt 0.653640 0.992081
vt 0.739440 0.472848
vt 0.327931 0.903010
vt 0.008441 0.903010
vt 0.408652 0.818119
vt 0.663216 0.453527
vt 0.709126 0.453527
vt 0.709126 0.465699
vt 0.663216 0.465699
vt 0.663216 0.407628
vt 0.651044 0.453527
vt 0.651044 0.407628
vt 0.729351 0.322283
vt 0.729351 0.368183
vt 0.683442 0.368183
vt 0.683442 0.322283
vt 0.970987 0.620172
vt 0.925087 0.620172
vt 0.925087 0.574262
vt 0.970987 0.574262
vt 0.683442 0.310111
vt 0.729351 0.310111
vt 0.741523 0.322283
vt 0.741523 0.368183
vt 0.729351 0.380355
vt 0.683442 0.380355
vt 0.671270 0.368183
vt 0.671270 0.322283
vt 0.709126 0.407628
vt 0.663216 0.395456
vt 0.709126 0.395456
vt 0.721298 0.407628
vt 0.721298 0.453527
vt 0.831284 0.572631
vt 0.831284 0.618530
vt 0.819112 0.618530
vt 0.819112 0.572631
vt 0.877194 0.618530
vt 0.877194 0.630702
vt 0.831284 0.630702
vt 0.877194 0.572631
vt 0.889366 0.572631
vt 0.889366 0.618530
vt 0.831284 0.560459
vt 0.877194 0.560459
vt 0.925087 0.562090
vt 0.970987 0.562090
vt 0.912916 0.620172
vt 0.912916 0.574262
vt 0.970987 0.632344
vt 0.925087 0.632344
vt 0.983159 0.574262
vt 0.983159 0.620172
vt 0.417706 0.569281
vt 0.988278 0.463793
vt 0.837920 0.011742
vt 0.837920 0.235770
vt 0.118676 0.274517
vt 0.092369 0.243688
vt 0.392645 0.304682
vt 0.118676 0.304682
vt 0.092369 0.274517
vt 0.582932 0.011742
s 0
usemtl Pyramid_enter
f 1/1/1 2/2/1 3/3/2 4/4/2
f 5/5/3 6/6/3 7/7/4 8/8/4
f 4/4/5 3/3/6 9/9/7 10/10/7
f 11/11/8 12/12/8 6/6/9 5/5/10
f 10/10/8 9/9/8 13/13/9 14/14/9
f 15/15/5 16/16/5 12/12/7 11/11/7
f 14/14/3 13/13/3 17/17/4 18/18/4
f 19/19/1 20/20/1 16/16/2 15/15/2
f 18/18/11 17/17/12 21/21/13 22/22/14
f 22/22/15 21/21/15 23/23/16 24/24/16
f 24/24/17 23/23/17 25/25/18 26/26/19
f 26/26/20 25/25/20 27/27/21 28/28/21
f 28/28/22 27/27/22 29/29/23 30/30/23
f 30/30/24 29/29/24 31/31/25 32/32/25
f 32/32/26 31/31/26 33/33/27 34/34/27
f 34/34/28 33/33/28 35/35/29 36/36/30
f 36/36/31 35/35/31 37/37/32 38/38/32
f 38/38/33 37/37/34 39/39/35 40/40/35
f 40/40/36 39/39/36 41/41/37 42/42/37
f 42/42/38 41/41/38 2/43/39 1/44/39
f 8/8/11 7/7/40 43/45/13 44/46/13
f 44/46/15 43/45/15 45/47/16 46/48/16
f 46/48/17 45/47/17 47/49/18 48/50/18
f 48/50/20 47/49/20 49/51/21 50/52/21
f 50/52/22 49/51/22 51/53/23 52/54/23
f 52/54/24 51/53/41 53/55/25 54/56/25
f 54/56/26 53/55/26 55/57/27 56/58/42
f 56/58/28 55/57/43 57/59/29 58/60/29
f 58/60/31 57/59/44 59/61/32 60/62/32
f 60/62/33 59/61/34 61/63/35 62/64/35
f 62/64/36 61/63/36 63/65/37 64/66/37
f 64/66/38 63/65/38 20/67/39 19/68/39
f 66/69/45 65/70/45 68/71/46 70/72/46
f 70/73/46 68/74/46 72/75/47 71/76/47
f 66/77/48 73/78/48 75/79/48 74/80/48
f 74/80/49 75/81/49 77/82/49 76/83/49
f 65/70/45 66/77/45 74/80/45 76/83/45
f 148/84/50 65/85/50 76/83/50 77/86/50
f 66/69/45 70/72/46 69/87/45
f 68/71/46 65/70/45 67/88/45
f 82/89/49 83/90/49 84/91/49 66/92/49
f 83/93/48 78/94/48 79/95/48 84/96/48
f 82/97/45 85/98/45 78/94/45 83/93/45
f 82/89/49 88/99/49 89/100/49
f 90/101/49 91/102/49 92/103/49
f 93/104/49 94/105/49 95/106/49
f 80/107/49 91/102/49 65/108/49 81/109/49
f 91/102/49 90/101/49 65/108/49
f 96/110/49 88/99/49 66/92/49
f 93/104/49 65/108/49 94/105/49
f 88/99/49 82/89/49 66/92/49
f 87/111/50 98/112/50 92/113/50 91/114/50
f 92/113/45 98/112/45 104/115/45
f 96/110/49 99/116/49 88/99/49
f 100/117/51 149/118/51 153/119/51
f 100/120/45 101/121/45 89/122/45
f 90/101/49 102/123/49 94/105/49
f 149/124/45 99/125/45 96/126/45 153/127/45
f 100/128/48 88/129/48 99/125/48 149/124/48
f 90/101/49 94/105/49 65/108/49
f 103/130/45 93/131/45 95/132/45
f 97/133/45 105/134/45 106/135/45
f 66/92/50 69/136/50 110/137/50
f 109/138/50 66/92/50 110/137/50
f 65/108/48 108/139/48 67/140/48
f 96/110/49 66/92/49 105/141/49
f 65/108/48 107/142/48 108/139/48
f 111/143/49 68/144/49 67/145/49 108/146/49
f 96/110/49 105/141/49 97/147/49
f 110/148/49 69/149/49 70/150/49 112/151/49
f 112/152/50 70/153/50 71/154/50 113/155/50
f 110/148/49 112/151/49 111/143/49 108/146/49
f 107/156/52 109/157/52 110/158/52 108/159/52
f 113/160/49 71/161/49 72/162/49 114/163/49
f 68/164/48 111/165/48 114/166/48 72/167/48
f 111/165/52 112/152/52 113/155/52 114/166/52
f 152/168/45 106/135/45 103/130/45 150/169/45
f 152/168/45 97/133/45 106/135/45
f 153/127/48 96/126/48 97/133/48 152/168/48
f 150/169/45 103/130/45 95/132/45
f 90/170/50 104/171/50 151/172/50 102/173/50
f 80/174/45 86/175/45 87/111/45 91/114/45
f 88/176/45 100/120/45 89/122/45
f 94/177/50 154/178/53 150/169/54 95/132/50
f 65/108/48 93/104/48 107/142/48
f 106/179/50 105/141/50 109/138/50
f 105/141/50 66/92/50 109/138/50
f 103/180/49 106/181/49 109/157/49 107/156/49
f 93/104/48 103/182/48 107/142/48
f 116/183/49 117/184/49 118/185/49 119/186/49
f 120/187/48 116/183/48 119/188/48 121/189/48
f 122/190/45 123/191/45 124/192/45 125/193/45
f 126/194/52 127/195/52 128/196/52 129/197/52
f 122/190/49 125/193/49 130/198/49 131/199/49
f 123/191/50 122/190/50 131/200/50 132/201/50
f 124/192/51 123/191/51 132/202/51 133/203/51
f 125/193/48 124/192/48 133/204/48 130/205/48
f 134/206/51 120/187/51 121/207/51 135/208/51
f 117/184/50 134/206/50 135/209/50 118/210/50
f 136/211/48 137/212/48 138/213/48 139/214/48
f 137/212/51 140/215/51 141/216/51 138/217/51
f 140/215/50 142/218/50 143/219/50 141/220/50
f 142/218/49 136/211/49 139/221/49 143/222/49
f 116/183/52 120/187/52 134/206/52 117/184/52
f 142/218/45 140/215/45 137/212/45 136/211/45
f 129/197/50 128/196/50 144/223/50 145/224/50
f 128/196/51 127/195/51 146/225/51 144/226/51
f 127/195/48 126/194/48 147/227/48 146/228/48
f 126/194/49 129/197/49 145/229/49 147/230/49
f 81/109/49 65/108/49 148/231/49
f 154/178/45 94/177/45 102/173/45 151/172/45
f 66/92/49 84/91/49 73/232/49
f 86/175/50 80/174/50 81/233/50 115/234/50
f 85/98/48 82/97/48 89/122/48 101/121/48
f 154/235/55 104/236/51 100/117/51 153/119/51
f 104/115/45 98/112/45 101/121/45 100/120/45
f 153/119/51 152/237/51 150/238/56 154/235/55
f 104/236/51 154/235/55 151/239/51
f 92/113/45 104/115/45 90/240/45
